<svg xmlns="http://www.w3.org/2000/svg" viewBox="0 0 1007.68 532"><defs><style>.cls-1{fill:#f7c421;}.cls-2{fill:#fff;}</style></defs><g id="Layer_2" data-name="Layer 2"><g id="Layer_1-2" data-name="Layer 1"><path d="M1007.68,83.87a5,5,0,0,0-10,0c0,23-8,42.35-23.73,57.45-27.65,26.52-73.77,35.3-105,38.13a235.65,235.65,0,0,0-18-23.28c22.54-12.38,44.7-29.35,58.8-52.09,17.92-28.9,20.51-62.78,7.71-100.68A5,5,0,1,0,908,6.6c11.8,34.93,9.54,66-6.72,92.19-13.32,21.5-34.63,37.7-57.29,49.77a281.78,281.78,0,0,0-38.86-33.78C743,69.78,660.61,45,573.2,45S403.44,69.78,341.31,114.78C310.64,137,286.49,163,269.54,192c-2.65,4.54-5.08,9.12-7.33,13.74-96.16,5.55-254.37-71.8-254.37-71.8-6-2.64-10.83,5.49-5.62,9.48,37.8,29,112.8,81.3,240.58,150.84,1,31.5,9.95,62,26.74,90.76,16.95,29,41.1,55,71.77,77.21C403.44,507.22,485.79,532,573.2,532S743,507.22,805.09,462.22C835.76,440,859.91,414,876.86,385c17.81-30.5,26.84-63,26.84-96.51s-9-66-26.84-96.51c-.58-1-1.19-2-1.79-3,32.4-3.41,77.31-13.18,105.79-40.48C998.66,131.49,1007.68,109.73,1007.68,83.87Z"/><path class="cls-1" d="M257.7,288.5c0,73.38,47.77,138.67,122,180.48V108C305.47,149.83,257.7,215.12,257.7,288.5Z"/><path class="cls-1" d="M599.7,60.81V516.19c47-2.83,91.11-13.12,130-29.24V90.05C690.81,73.93,646.72,63.64,599.7,60.81Z"/><path class="cls-1" d="M888.7,288.5c0-68-41-129-106-170.83V459.33C847.72,417.48,888.7,356.46,888.7,288.5Z"/><path class="cls-1" d="M432.7,83.87V493.13a408.86,408.86,0,0,0,114,23.06V60.81A408.86,408.86,0,0,0,432.7,83.87Z"/><path d="M379.7,108V469a350.57,350.57,0,0,0,53,24.15V83.87A350.57,350.57,0,0,0,379.7,108Z"/><path d="M573.2,60q-13.4,0-26.5.81V516.19q13.11.79,26.5.81t26.5-.81V60.81Q586.59,60,573.2,60Z"/><path d="M729.7,90.05V487a334.31,334.31,0,0,0,53-27.62V117.67A334.31,334.31,0,0,0,729.7,90.05Z"/><circle cx="828.7" cy="238" r="33"/><circle class="cls-2" cx="820.2" cy="228.5" r="15.5"/><path d="M861.7,313.4s-79,1.27-57,36.18c16,25.42,48,1.42,31-18.1C836.18,323.58,861.7,313.4,861.7,313.4Z"/></g></g></svg>